<mxfile host="Electron" agent="Mozilla/5.0 (Macintosh; Intel Mac OS X 10_15_7) AppleWebKit/537.36 (KHTML, like Gecko) draw.io/24.7.17 Chrome/128.0.6613.36 Electron/32.0.1 Safari/537.36" version="24.7.17">
  <diagram name="Page-1" id="G0m2dJ0Z7-ob25dh9rJZ">
    <mxGraphModel dx="1224" dy="897" grid="1" gridSize="10" guides="1" tooltips="1" connect="1" arrows="1" fold="1" page="1" pageScale="1" pageWidth="850" pageHeight="1100" math="0" shadow="0">
      <root>
        <mxCell id="0" />
        <mxCell id="1" parent="0" />
        <mxCell id="CFytFZF61JCWxmyEq54n-1" value="Ollama" style="whiteSpace=wrap;html=1;aspect=fixed;fillColor=#ffe6cc;strokeColor=#d79b00;" vertex="1" parent="1">
          <mxGeometry x="160" y="320" width="80" height="80" as="geometry" />
        </mxCell>
        <mxCell id="CFytFZF61JCWxmyEq54n-5" style="edgeStyle=orthogonalEdgeStyle;rounded=0;orthogonalLoop=1;jettySize=auto;html=1;exitX=0;exitY=0.5;exitDx=0;exitDy=0;entryX=1;entryY=0.5;entryDx=0;entryDy=0;" edge="1" parent="1" source="CFytFZF61JCWxmyEq54n-2" target="CFytFZF61JCWxmyEq54n-1">
          <mxGeometry relative="1" as="geometry" />
        </mxCell>
        <mxCell id="CFytFZF61JCWxmyEq54n-2" value="Litellm" style="whiteSpace=wrap;html=1;aspect=fixed;fillColor=#dae8fc;strokeColor=#6c8ebf;" vertex="1" parent="1">
          <mxGeometry x="320" y="320" width="80" height="80" as="geometry" />
        </mxCell>
        <mxCell id="CFytFZF61JCWxmyEq54n-4" style="edgeStyle=orthogonalEdgeStyle;rounded=0;orthogonalLoop=1;jettySize=auto;html=1;exitX=0;exitY=0.5;exitDx=0;exitDy=0;entryX=1;entryY=0.5;entryDx=0;entryDy=0;" edge="1" parent="1" source="CFytFZF61JCWxmyEq54n-3" target="CFytFZF61JCWxmyEq54n-2">
          <mxGeometry relative="1" as="geometry" />
        </mxCell>
        <mxCell id="CFytFZF61JCWxmyEq54n-3" value="OpenWebUI" style="whiteSpace=wrap;html=1;aspect=fixed;fillColor=#f8cecc;strokeColor=#b85450;" vertex="1" parent="1">
          <mxGeometry x="480" y="320" width="80" height="80" as="geometry" />
        </mxCell>
        <mxCell id="CFytFZF61JCWxmyEq54n-7" style="edgeStyle=orthogonalEdgeStyle;rounded=0;orthogonalLoop=1;jettySize=auto;html=1;exitX=0;exitY=0.5;exitDx=0;exitDy=0;entryX=0.5;entryY=0;entryDx=0;entryDy=0;" edge="1" parent="1" source="CFytFZF61JCWxmyEq54n-6" target="CFytFZF61JCWxmyEq54n-2">
          <mxGeometry relative="1" as="geometry" />
        </mxCell>
        <mxCell id="CFytFZF61JCWxmyEq54n-6" value="Driver Club Chatbot" style="whiteSpace=wrap;html=1;aspect=fixed;fillColor=#e1d5e7;strokeColor=#9673a6;" vertex="1" parent="1">
          <mxGeometry x="480" y="200" width="80" height="80" as="geometry" />
        </mxCell>
      </root>
    </mxGraphModel>
  </diagram>
</mxfile>
